<?xml version="1.0" standalone="no"?>
<!DOCTYPE svg PUBLIC "-//W3C//DTD SVG 20010904//EN"
 "http://www.w3.org/TR/2001/REC-SVG-20010904/DTD/svg10.dtd">
<svg version="1.0" xmlns="http://www.w3.org/2000/svg"
 width="234.000000pt" height="106.000000pt" viewBox="0 0 234.000000 106.000000"
 preserveAspectRatio="xMidYMid meet">
<metadata>
Created by potrace 1.10, written by Peter Selinger 2001-2011
</metadata>
<g transform="translate(0.000000,106.000000) scale(0.100000,-0.100000)"
fill="#000000" stroke="none">
<path d="M963 951 c-84 -14 -190 -49 -318 -106 -93 -41 -143 -57 -220 -70
-202 -32 -313 -75 -345 -135 l-11 -21 38 21 c21 11 45 20 54 20 9 0 43 14 75
31 63 33 178 63 282 74 37 4 81 17 105 30 91 51 243 103 351 121 95 16 123 16
230 6 162 -16 393 -68 431 -96 36 -26 0 -43 -160 -71 -142 -26 -213 -45 -115
-31 177 24 517 34 591 17 33 -8 38 -6 48 15 6 13 18 24 26 24 9 0 14 4 11 9
-3 5 -26 9 -51 9 -47 1 -213 41 -365 87 -186 57 -511 89 -657 66z m781 -127
c34 -9 68 -19 76 -22 23 -8 28 -9 56 -11 14 0 23 -5 20 -9 -3 -5 -58 -10 -122
-11 -105 -2 -116 -1 -110 14 3 9 6 25 6 36 0 23 -1 23 74 3z"/>
<path d="M1860 904 c-15 -7 -31 -17 -34 -23 -10 -15 182 -2 214 15 l25 13 -35
1 c-19 1 -59 2 -88 3 -30 1 -66 -3 -82 -9z"/>
<path d="M958 896 c-42 -8 -100 -22 -130 -31 -69 -23 -198 -82 -198 -91 0 -3
8 -3 18 1 9 4 208 11 442 15 234 4 433 11 443 15 30 13 19 23 -50 44 -161 48
-395 69 -525 47z m342 -31 c83 -14 131 -28 123 -35 -12 -12 -623 -20 -623 -9
0 5 9 9 20 9 11 0 20 4 20 9 0 8 56 21 112 26 10 1 21 5 25 9 8 9 264 2 323
-9z"/>
<path d="M1791 855 c3 -2 33 -11 67 -19 59 -14 63 -13 72 5 10 18 6 19 -66 19
-43 0 -75 -2 -73 -5z"/>
<path d="M900 764 c-14 -1 -113 -8 -220 -14 -107 -7 -211 -16 -230 -21 -41
-10 -113 -59 -88 -59 9 0 20 5 23 11 20 32 133 41 185 14 24 -12 38 -14 68 -6
100 27 396 58 702 74 30 2 -51 3 -180 4 -129 0 -246 -1 -260 -3z"/>
<path d="M1570 727 c-3 -3 -66 -8 -140 -11 -136 -7 -366 -38 -378 -51 -4 -5
11 -5 33 -2 22 4 237 7 478 7 240 0 437 4 437 8 0 5 -6 16 -13 27 -13 16 -34
19 -213 23 -109 2 -201 2 -204 -1z"/>
<path d="M1776 639 c-38 -11 -63 -35 -76 -74 -14 -43 0 -79 42 -105 39 -24 78
-25 118 -5 34 17 37 27 15 45 -11 9 -19 8 -37 -4 -12 -9 -30 -16 -40 -16 -24
0 -58 35 -58 60 0 46 76 80 108 48 10 -9 16 -9 28 3 13 14 13 17 0 28 -23 19
-69 28 -100 20z"/>
<path d="M141 626 c-13 -7 -30 -24 -37 -37 -53 -95 66 -194 151 -127 l27 21
-6 -21 c-6 -18 -3 -22 13 -22 11 0 25 9 31 20 13 24 84 29 97 7 4 -8 29 -17
56 -20 l47 -7 0 35 c0 44 23 47 40 5 7 -16 15 -31 19 -31 21 -5 51 -6 51 -2 0
2 -7 18 -16 35 -13 25 -14 36 -5 50 17 27 13 73 -7 91 -13 12 -37 17 -75 17
l-56 0 -3 -82 -3 -83 -34 83 c-31 74 -37 82 -62 82 -25 0 -29 -7 -54 -75 -24
-66 -29 -73 -46 -64 -14 7 -26 5 -44 -7 -25 -16 -28 -16 -53 3 -38 28 -41 67
-7 89 22 15 32 16 57 6 24 -9 35 -8 50 2 19 14 19 14 -4 30 -27 19 -94 20
-127 2z m428 -35 c21 -13 5 -41 -24 -41 -20 0 -25 5 -25 25 0 26 22 33 49 16z
m-192 -63 c-29 -18 -34 -6 -16 39 l12 28 8 -30 c6 -20 5 -32 -4 -37z m130 -10
c-3 -8 -6 -5 -6 6 -1 11 2 17 5 13 3 -3 4 -12 1 -19z m-77 -19 c0 -6 -4 -7
-10 -4 -5 3 -10 11 -10 16 0 6 5 7 10 4 6 -3 10 -11 10 -16z"/>
<path d="M650 545 c0 -56 4 -96 10 -96 30 -5 34 -2 35 25 0 40 21 44 39 8 15
-29 34 -42 63 -42 12 0 11 7 -6 36 -20 33 -20 38 -6 54 19 21 19 59 -1 88 -13
19 -24 22 -75 22 l-59 0 0 -95z m100 40 c16 -20 4 -35 -29 -35 -23 0 -27 4
-25 23 1 12 3 23 3 25 3 8 41 -1 51 -13z"/>
<path d="M820 539 c0 -88 2 -100 16 -95 9 3 42 6 75 6 52 0 59 2 59 20 0 17
-7 20 -50 20 -38 0 -50 4 -50 15 0 11 11 15 43 15 36 0 43 3 43 20 0 17 -7 20
-43 20 -37 0 -43 3 -43 21 0 20 4 21 50 17 47 -5 50 -4 50 18 0 23 -3 24 -75
24 l-75 0 0 -101z"/>
<path d="M998 539 c3 -85 6 -100 18 -95 9 3 19 6 22 6 4 0 5 22 4 50 -2 27 0
50 5 50 4 -1 26 -25 48 -55 59 -80 81 -73 85 25 5 113 3 120 -26 120 -26 0
-26 -1 -22 -60 2 -33 4 -60 3 -60 -1 0 -23 27 -48 60 -33 42 -54 60 -69 60
-23 0 -23 -2 -20 -101z m52 40 c0 -5 -7 -9 -15 -9 -15 0 -20 12 -9 23 8 8 24
-1 24 -14z m104 -84 c-4 -8 -10 -12 -15 -9 -11 6 -2 24 11 24 5 0 7 -7 4 -15z"/>
<path d="M1200 620 c0 -15 7 -20 25 -20 25 0 25 -1 25 -80 0 -44 4 -80 9 -80
35 0 41 13 41 87 l0 74 32 -3 c26 -3 31 1 33 20 2 21 -1 22 -82 22 -76 0 -83
-2 -83 -20z"/>
<path d="M1474 625 c-3 -8 -3 -40 0 -72 2 -32 5 -68 5 -80 1 -13 7 -23 16 -23
11 0 15 17 17 72 l3 72 58 -72 c36 -45 65 -72 77 -72 18 0 20 7 20 95 0 78 -3
95 -15 95 -12 0 -15 -15 -15 -76 l0 -75 -62 75 c-61 74 -92 92 -104 61z"/>
<path d="M1900 547 c0 -52 3 -96 6 -99 3 -3 14 -4 25 -1 13 4 19 14 19 34 0
39 25 38 45 -1 11 -21 23 -30 40 -30 29 0 30 3 9 36 -15 23 -15 26 0 43 21 24
20 74 -2 94 -13 12 -37 17 -80 17 l-62 0 0 -93z m115 28 c0 -15 -8 -21 -32
-23 -30 -3 -33 -1 -33 23 0 24 3 26 33 23 24 -2 32 -8 32 -23z"/>
<path d="M436 342 l-15 -28 35 0 c19 1 34 2 34 3 0 10 -25 53 -31 53 -5 0 -15
-13 -23 -28z m29 -2 c3 -5 1 -10 -4 -10 -6 0 -11 5 -11 10 0 6 2 10 4 10 3 0
8 -4 11 -10z"/>
<path d="M554 355 c-10 -25 4 -45 31 -45 14 0 25 4 25 8 0 5 -10 8 -22 8 -14
-1 -23 5 -23 14 0 9 9 15 23 14 12 0 22 3 22 8 0 14 -50 8 -56 -7z"/>
<path d="M642 345 c-7 -14 -12 -27 -12 -28 0 -1 14 -2 30 -2 17 0 30 1 30 2 0
9 -25 53 -30 53 -4 0 -12 -11 -18 -25z m28 -5 c0 -5 -4 -10 -10 -10 -5 0 -10
5 -10 10 0 6 5 10 10 10 6 0 10 -4 10 -10z"/>
<path d="M717 364 c-11 -11 -8 -54 3 -54 6 0 10 5 10 12 0 9 3 9 12 0 18 -18
24 -15 23 16 0 19 -6 28 -20 30 -12 2 -24 0 -28 -4z m33 -14 c0 -5 -4 -10 -10
-10 -5 0 -10 5 -10 10 0 6 5 10 10 10 6 0 10 -4 10 -10z"/>
<path d="M840 338 c0 -22 3 -29 9 -19 6 9 11 10 15 2 12 -19 22 -12 21 17 0
20 -6 28 -22 30 -20 3 -23 -1 -23 -30z m35 12 c3 -5 -1 -10 -9 -10 -9 0 -16 5
-16 10 0 6 4 10 9 10 6 0 13 -4 16 -10z"/>
<path d="M910 340 c0 -26 3 -30 28 -29 16 1 20 3 10 6 -10 2 -18 9 -18 15 0 5
7 8 15 4 8 -3 15 -1 15 4 0 6 -8 10 -17 11 -15 0 -15 2 2 9 18 8 17 9 -7 9
-25 1 -28 -3 -28 -29z"/>
<path d="M991 338 c1 -31 2 -31 8 -8 l7 25 12 -22 c18 -32 32 -29 32 7 0 17
-5 30 -11 30 -6 0 -9 -7 -5 -15 3 -8 1 -15 -5 -15 -5 0 -12 7 -15 15 -11 26
-24 16 -23 -17z"/>
<path d="M1076 362 c7 -4 14 -18 17 -32 l4 -25 2 27 c0 14 7 29 14 31 6 3 -1
6 -18 6 -16 0 -25 -3 -19 -7z"/>
<path d="M1147 344 l-16 -30 35 0 c39 1 41 5 15 37 l-18 23 -16 -30z m28 -4
c3 -5 1 -10 -4 -10 -6 0 -11 5 -11 10 0 6 2 10 4 10 3 0 8 -4 11 -10z"/>
<path d="M1220 340 c0 -26 3 -30 28 -29 16 1 20 3 10 6 -11 3 -18 14 -18 29 0
13 -4 24 -10 24 -5 0 -10 -13 -10 -30z"/>
<path d="M1316 363 c-4 -4 3 -16 16 -26 l23 -19 -22 5 c-13 3 -23 1 -23 -4 0
-13 38 -11 46 2 4 7 -1 16 -12 22 -17 10 -17 11 1 18 19 7 19 8 -1 8 -11 1
-24 -2 -28 -6z"/>
<path d="M1380 340 c0 -26 3 -30 28 -29 16 1 20 3 10 6 -10 2 -18 9 -18 14 0
6 4 8 9 4 5 -3 12 -1 16 5 3 5 -2 10 -12 11 -16 0 -16 1 2 9 18 8 17 9 -7 9
-25 1 -28 -3 -28 -29z"/>
<path d="M1459 368 c-1 -2 -2 -15 -3 -30 -2 -29 8 -37 18 -15 5 10 7 10 12 0
10 -22 20 -14 19 15 0 20 -6 28 -22 30 -13 2 -24 2 -24 0z m36 -18 c3 -5 -1
-10 -9 -10 -9 0 -16 5 -16 10 0 6 4 10 9 10 6 0 13 -4 16 -10z"/>
<path d="M1535 340 c9 -16 18 -30 20 -30 2 0 11 14 20 30 9 17 11 30 6 30 -5
0 -12 -10 -15 -22 l-7 -23 -11 23 c-6 12 -15 22 -20 22 -5 0 -2 -13 7 -30z"/>
<path d="M1612 340 c0 -19 2 -27 5 -17 2 9 2 25 0 35 -3 9 -5 1 -5 -18z"/>
<path d="M1654 355 c-10 -24 4 -45 28 -44 l23 0 -23 10 c-29 11 -24 31 9 40
23 7 23 7 -4 8 -16 1 -30 -5 -33 -14z"/>
<path d="M1730 340 c0 -26 3 -30 28 -29 23 2 24 2 5 6 -27 5 -31 23 -5 24 14
0 14 2 -3 8 -19 8 -18 9 5 13 25 5 25 5 -2 7 -25 1 -28 -3 -28 -29z"/>
<path d="M165 350 c-27 -5 -1 -8 83 -9 75 0 122 3 122 9 0 11 -142 11 -205 0z"/>
<path d="M1814 348 c-3 -4 48 -8 112 -8 65 0 115 2 113 4 -9 9 -220 13 -225 4z"/>
</g>
</svg>
