<?xml version="1.0" standalone="no"?>
<!DOCTYPE svg PUBLIC "-//W3C//DTD SVG 20010904//EN"
 "http://www.w3.org/TR/2001/REC-SVG-20010904/DTD/svg10.dtd">
<svg version="1.0" xmlns="http://www.w3.org/2000/svg"
 width="195.000000pt" height="87.000000pt" viewBox="0 0 195.000000 87.000000"
 preserveAspectRatio="xMidYMid meet">
<metadata>
Created by potrace 1.10, written by Peter Selinger 2001-2011
</metadata>
<g transform="translate(0.000000,87.000000) scale(0.100000,-0.100000)"
fill="#000000" stroke="none">
<path d="M848 495 c-85 -16 -161 -43 -290 -103 -65 -30 -113 -44 -195 -57
-172 -27 -273 -68 -303 -126 -11 -19 -10 -19 22 1 18 11 44 20 58 20 14 0 42
11 63 25 41 29 148 59 245 70 43 5 95 22 158 51 52 25 135 56 185 70 86 25
100 26 253 21 142 -4 177 -9 300 -41 77 -19 144 -40 150 -46 20 -20 -15 -35
-142 -62 l-127 -26 100 6 c55 4 189 7 297 6 183 -1 198 1 204 18 3 10 12 18
20 18 8 0 13 4 10 9 -3 4 -36 11 -73 14 -37 3 -144 28 -238 56 -93 27 -213 56
-265 65 -137 24 -338 29 -432 11z m589 -62 c76 -20 194 -51 263 -69 137 -35
144 -52 17 -40 -40 4 -108 6 -152 6 -77 -1 -79 -1 -62 18 36 40 4 59 -168 101
-44 11 -70 20 -58 20 12 1 84 -15 160 -36z"/>
<path d="M1694 456 c-18 -8 -34 -18 -37 -23 -8 -13 181 -3 208 11 25 13 24 13
-21 20 -70 9 -115 7 -150 -8z m124 -13 c-10 -2 -28 -2 -40 0 -13 2 -5 4 17 4
22 1 32 -1 23 -4z"/>
<path d="M867 450 c-26 -5 -75 -17 -110 -29 -64 -21 -202 -80 -196 -85 2 -1
49 1 104 5 55 4 236 7 403 8 286 1 342 6 342 30 0 11 -179 58 -273 70 -89 12
-199 12 -270 1z m350 -31 c54 -11 109 -23 121 -26 63 -15 -26 -21 -322 -21
l-321 -1 50 24 c28 14 69 27 90 31 22 3 42 8 44 10 14 14 249 2 338 -17z"/>
<path d="M1630 409 c0 -3 25 -11 57 -18 41 -8 60 -8 70 0 23 20 14 24 -57 24
-38 0 -70 -3 -70 -6z"/>
<path d="M670 319 c-225 -16 -286 -25 -324 -49 -20 -12 -36 -26 -36 -31 0 -6
14 0 31 12 43 31 114 36 160 11 24 -12 43 -16 58 -11 56 21 412 60 666 72 33
2 -50 3 -185 4 -135 0 -301 -4 -370 -8z m-115 -39 c-3 -5 -12 -10 -18 -10 -7
0 -6 4 3 10 19 12 23 12 15 0z"/>
<path d="M1188 283 c6 -2 18 -2 25 0 6 3 1 5 -13 5 -14 0 -19 -2 -12 -5z"/>
<path d="M1349 286 c-2 -2 -53 -7 -114 -11 -60 -3 -155 -15 -210 -25 l-100
-19 79 4 c43 3 248 5 454 5 l374 0 -14 23 c-15 22 -20 22 -240 25 -123 1 -226
0 -229 -2z m375 -17 c-3 -5 -71 -8 -152 -7 -105 1 -131 4 -92 8 79 10 251 9
244 -1z m-307 -5 c-3 -3 -12 -4 -19 -1 -8 3 -5 6 6 6 11 1 17 -2 13 -5z m356
-1 c-7 -2 -19 -2 -25 0 -7 3 -2 5 12 5 14 0 19 -2 13 -5z"/>
<path d="M1622 209 c-93 -20 -110 -134 -25 -174 59 -28 145 2 113 40 -11 13
-15 13 -33 0 -12 -8 -29 -15 -38 -15 -38 0 -65 70 -37 98 15 15 70 16 84 2 13
-13 39 13 30 29 -11 17 -60 28 -94 20z"/>
<path d="M99 181 c-80 -80 14 -198 114 -143 24 13 34 16 27 7 -10 -13 -8 -15
13 -15 14 0 27 7 31 15 3 10 19 15 46 15 29 0 40 -4 40 -15 0 -11 12 -15 45
-15 43 0 45 1 45 30 0 39 24 39 40 0 10 -23 19 -30 41 -30 l29 0 -19 31 c-17
28 -18 34 -5 46 20 20 18 67 -4 86 -12 11 -36 17 -70 17 l-52 0 0 -77 c0 -42
-3 -73 -7 -70 -3 4 -18 37 -33 74 -23 56 -32 69 -52 71 -23 3 -28 -4 -53 -67
-21 -53 -31 -68 -40 -61 -8 7 -21 6 -40 -4 -32 -17 -58 -8 -75 25 -25 45 51
94 88 57 8 -8 15 -8 28 3 15 12 14 15 -6 31 -36 29 -96 24 -131 -11z m418 -27
c7 -18 -12 -34 -39 -34 -13 0 -18 8 -18 25 0 20 5 25 25 25 14 0 28 -7 32 -16z
m-190 -52 c-12 -2 -28 -9 -34 -14 -21 -17 -15 0 7 22 11 11 20 28 21 38 0 11
5 6 14 -13 12 -28 12 -30 -8 -33z m56 -22 c7 -26 1 -26 -13 0 -6 11 -7 20 -2
20 6 0 12 -9 15 -20z"/>
<path d="M580 120 c0 -88 1 -90 23 -90 20 0 23 4 19 30 -3 22 0 30 11 30 8 0
20 -14 27 -30 10 -23 19 -30 41 -30 l29 0 -19 31 c-17 28 -18 34 -5 46 19 19
18 68 -2 87 -10 11 -34 16 -70 16 l-54 0 0 -90z m98 28 c3 -14 -3 -18 -27 -18
-25 0 -31 4 -31 21 0 16 5 20 27 17 17 -2 29 -10 31 -20z m-58 -42 c0 -3 -4
-8 -10 -11 -5 -3 -10 -1 -10 4 0 6 5 11 10 11 6 0 10 -2 10 -4z"/>
<path d="M740 120 l0 -90 70 0 c63 0 70 2 70 20 0 17 -7 20 -50 20 -38 0 -50
4 -50 15 0 11 11 15 40 15 33 0 40 3 40 20 0 17 -7 20 -40 20 -31 0 -38 3 -34
15 4 10 20 15 50 15 37 0 44 3 44 20 0 18 -7 20 -70 20 l-70 0 0 -90z m40 -1
c0 -5 -4 -9 -10 -9 -5 0 -10 7 -10 16 0 8 5 12 10 9 6 -3 10 -10 10 -16z"/>
<path d="M900 120 c0 -89 0 -90 25 -90 22 0 25 4 25 38 0 21 -7 47 -15 58 -27
36 -14 74 14 40 9 -11 9 -15 -1 -18 -20 -7 73 -118 99 -118 22 0 23 3 23 90 0
83 -2 90 -20 90 -16 0 -19 -8 -22 -56 l-3 -55 -40 55 c-28 39 -47 56 -62 56
-22 0 -23 -3 -23 -90z m147 -40 c2 -20 -8 -26 -20 -13 -4 3 -2 12 4 20 15 17
14 17 16 -7z"/>
<path d="M1084 190 c0 -15 7 -20 28 -20 28 0 28 0 28 -70 0 -66 1 -70 23 -70
22 0 23 3 19 70 l-4 70 31 0 c24 0 31 4 31 20 0 18 -7 20 -78 20 -71 0 -78 -2
-78 -20z m88 -12 c-9 -9 -15 -9 -24 0 -9 9 -7 12 12 12 19 0 21 -3 12 -12z"/>
<path d="M1341 120 c1 -83 3 -90 21 -90 19 0 20 5 16 70 -3 39 -5 70 -4 70 1
0 26 -31 56 -70 31 -40 62 -70 72 -70 16 0 18 11 18 90 0 75 -3 90 -16 90 -13
0 -15 -11 -12 -70 2 -38 0 -66 -3 -62 -4 4 -30 35 -58 70 -32 38 -59 62 -72
62 -18 0 -19 -6 -18 -90z"/>
<path d="M1735 120 c0 -87 1 -90 23 -90 18 0 22 6 22 30 0 38 16 38 38 0 13
-22 24 -30 45 -30 l28 0 -21 31 c-20 28 -21 31 -6 48 23 25 21 78 -3 91 -11 5
-44 10 -73 10 l-53 0 0 -90z m103 29 c2 -12 -6 -18 -27 -21 -27 -4 -31 -2 -31
19 0 21 4 24 27 21 16 -2 29 -10 31 -19z m-63 -39 c3 -5 1 -10 -4 -10 -6 0
-11 5 -11 10 0 6 2 10 4 10 3 0 8 -4 11 -10z"/>
</g>
</svg>
